<svg width="800" height="400" viewBox="0 0 800 400" xmlns="http://www.w3.org/2000/svg">
  <style>
    .land { fill: #00151a; stroke: #00F0FF; stroke-width: 0.5; }
    .hub { fill: #00F0FF; }
    .threat { fill: #FF0055; }
    @keyframes pulse {
      0% { r: 1; opacity: 1; }
      100% { r: 12; opacity: 0; }
    }
    .ring { animation: pulse 2s infinite; stroke-width: 1.5; fill: none; }
  </style>

  <rect width="800" height="400" fill="#000" rx="6" />

  <path class="land" d="M110,110 L150,115 L180,140 L190,180 L170,220 L130,240 L90,220 L70,180 L80,140 Z M380,100 L430,105 L460,130 L450,180 L410,210 L370,190 L360,140 Z M620,130 L670,140 L690,190 L660,240 L610,230 L590,180 Z" />
  
  <circle class="hub" cx="95" cy="155" r="3" />
  <circle class="ring" cx="95" cy="155" r="3" stroke="#00F0FF" />
  <text x="75" y="150" fill="#00F0FF" font-family="monospace" font-size="8">SF</text>

  <circle class="hub" cx="92" cy="130" r="3" />
  <circle class="ring" cx="92" cy="130" r="3" stroke="#00F0FF" style="animation-delay: 0.5s" />
  <text x="70" y="125" fill="#00F0FF" font-family="monospace" font-size="8">SEA</text>

  <circle class="hub" cx="135" cy="175" r="3" />
  <circle class="ring" cx="135" cy="175" r="3" stroke="#00F0FF" style="animation-delay: 1s" />
  <text x="135" y="190" fill="#00F0FF" font-family="monospace" font-size="8">AUS</text>

  <circle class="threat" cx="410" cy="135" r="4" />
  <circle class="ring" cx="410" cy="135" r="4" stroke="#FF0055" />
  <text x="420" y="135" fill="#FF0055" font-family="monospace" font-size="8">OVH_SCRAPER</text>

  <circle class="threat" cx="105" cy="165" r="4" />
  <circle class="ring" cx="105" cy="165" r="4" stroke="#FF0055" style="animation-delay: 0.7s" />
  <text x="115" y="175" fill="#FF0055" font-family="monospace" font-size="8">QNET_BOT</text>

  <text x="20" y="30" font-family="monospace" font-size="14" fill="#00F0FF" font-weight="bold">NODE_NULLZE: GLOBAL_RECON_MAP</text>
  <line x1="20" y1="40" x2="300" y2="40" stroke="#00F0FF" stroke-width="1" opacity="0.5" />
</svg>
